# xmcd CD database file
#
# Track frame offsets:
#	187
#	16522
#	40282
#	57907
#	80052
#	97325
#	130450
#	162015
#	179345
#	205445
#	221795
#	237225
#	255797
#	274127
#	293405
#
# Disc length: 4267 seconds
#
# Revision: 2
# Processed by: cddbd v1.5.1PL0 Copyright (c) Steve Scherf et al.
# Submitted via: CDex 1.40Release
#
DISCID=d510a90f
DTITLE=Various Artist - Beams Presents "Disco To Go" Vol.2
DYEAR=1999
DGENRE=Electronic
TTITLE0=Jocelyn Brown/Picking Up Promises
TTITLE1=Fat Larry's Band/Can't Keep My Hands To Myself
TTITLE2=Gary's Gang/Knock Me Out
TTITLE3=Silver Convention/I Like It
TTITLE4=The Charie Calello Orchestra/Sing Sing Sing
TTITLE5=Bill Summers And Summer Heat/Walking On Sunshine
TTITLE6=Indeep/Last Night A DJ Saved My Life(D.J. Delight)
TTITLE7=Linda Clifford/Runaway Love
TTITLE8=Carrie Lucas/I Gotta Keep Dancin'
TTITLE9=Heaven And Earth/I Really Love You
TTITLE10=Gavin Christopher/Takin' Your Love Away
TTITLE11=Shock/That's A Lady
TTITLE12=Weeks and Co/Rock Your World
TTITLE13=The Whispers/I Feel In Love Last Night(At The Disco)
TTITLE14=Idris Muhammad/Disco Man
EXTD=YEAR: 1999 ID3G: 52
EXTT0=
EXTT1=
EXTT2=
EXTT3=
EXTT4=
EXTT5=
EXTT6=
EXTT7=
EXTT8=
EXTT9=
EXTT10=
EXTT11=
EXTT12=
EXTT13=
EXTT14=
PLAYORDER=
